<?xml version="1.0" standalone="no"?>
<!DOCTYPE svg PUBLIC "-//W3C//DTD SVG 20010904//EN"
 "http://www.w3.org/TR/2001/REC-SVG-20010904/DTD/svg10.dtd">
<svg version="1.0" xmlns="http://www.w3.org/2000/svg"
 width="85.000000pt" height="85.000000pt" viewBox="0 0 85.000000 85.000000"
 preserveAspectRatio="xMidYMid meet">
<metadata>
Created by potrace 1.11, written by Peter Selinger 2001-2013
</metadata>
<g transform="translate(0.000000,85.000000) scale(0.100000,-0.100000)"
fill="#000000" stroke="none">
<path d="M364 813 c3 -21 6 -46 6 -56 0 -10 4 -16 8 -13 5 3 8 15 6 28 -1 13
-3 35 -3 51 -1 15 -6 27 -12 27 -8 0 -10 -13 -5 -37z"/>
<path d="M413 836 c4 -10 8 -36 8 -59 l2 -42 6 35 c10 52 8 73 -8 78 -10 3
-12 0 -8 -12z"/>
<path d="M469 848 c-6 -15 -5 -98 1 -91 13 14 21 93 10 93 -5 0 -10 -1 -11 -2z"/>
<path d="M308 834 c-4 -3 1 -26 9 -50 19 -56 25 -52 17 9 -6 44 -13 55 -26 41z"/>
<path d="M513 790 c-12 -61 -1 -66 17 -7 14 49 14 51 2 55 -5 1 -14 -20 -19
-48z"/>
<path d="M250 816 c0 -10 42 -86 50 -91 4 -3 0 16 -10 42 -10 26 -23 49 -29
51 -6 2 -11 1 -11 -2z"/>
<path d="M557 773 c-9 -26 -14 -49 -12 -51 5 -5 45 74 45 88 0 27 -19 5 -33
-37z"/>
<path d="M201 784 c10 -23 55 -84 62 -84 13 0 -36 83 -52 88 -7 2 -12 1 -10
-4z"/>
<path d="M602 743 l-22 -48 25 30 c38 44 48 65 32 65 -7 0 -23 -21 -35 -47z"/>
<path d="M165 760 c-5 -7 8 -27 30 -49 37 -35 38 -35 20 -6 -37 61 -43 67 -50
55z"/>
<path d="M642 724 c-39 -53 -29 -58 18 -9 21 22 30 38 24 44 -5 6 -22 -8 -42
-35z"/>
<path d="M120 719 c0 -12 60 -69 73 -69 11 0 -54 78 -65 79 -5 1 -8 -4 -8 -10z"/>
<path d="M682 689 c-18 -21 -29 -39 -25 -39 15 0 75 67 66 73 -5 3 -23 -12
-41 -34z"/>
<path d="M85 680 c-6 -9 73 -65 81 -57 2 2 -14 18 -35 35 -22 18 -43 28 -46
22z"/>
<path d="M294 670 c-55 -24 -61 -37 -33 -66 l24 -24 45 21 c73 33 75 35 78 58
3 21 1 22 -28 16 -20 -4 -35 -3 -39 3 -4 7 -20 5 -47 -8z"/>
<path d="M506 678 c5 -7 -5 -8 -30 -4 -33 6 -36 5 -36 -18 0 -19 8 -27 38 -37
20 -7 46 -18 58 -25 18 -12 23 -11 48 15 l27 28 -33 20 c-40 24 -81 35 -72 21z"/>
<path d="M710 655 c-19 -19 -31 -35 -26 -35 18 0 86 52 80 61 -8 14 -17 10
-54 -26z"/>
<path d="M54 639 c-7 -13 -9 -12 44 -38 59 -30 62 -22 7 17 -27 19 -47 27 -51
21z"/>
<path d="M743 618 c-45 -31 -54 -42 -26 -31 52 20 81 39 75 50 -5 7 -21 1 -49
-19z"/>
<path d="M186 568 c-27 -47 -34 -74 -15 -62 9 5 10 -3 5 -28 -6 -33 -5 -35 19
-35 14 0 25 5 25 12 0 6 11 32 23 58 l24 46 -28 27 -27 26 -26 -44z"/>
<path d="M600 585 c-21 -23 -22 -26 -7 -48 9 -14 20 -40 25 -58 7 -27 13 -34
33 -33 25 0 26 2 15 48 -6 23 -4 27 8 23 13 -5 13 -2 3 21 -16 38 -38 72 -46
72 -4 0 -18 -11 -31 -25z"/>
<path d="M30 581 c0 -5 20 -15 45 -23 54 -18 59 -9 10 15 -40 19 -55 21 -55 8z"/>
<path d="M758 569 c-21 -11 -38 -21 -38 -23 0 -2 23 3 50 12 28 9 50 19 50 24
0 13 -22 8 -62 -13z"/>
<path d="M365 566 c-44 -22 -60 -37 -80 -75 -23 -45 -16 -118 14 -157 69 -88
187 -83 255 9 28 39 28 126 0 164 -48 64 -128 89 -189 59z m141 -31 c75 -49
72 -169 -5 -225 -40 -28 -113 -30 -149 -3 -53 40 -68 75 -63 150 2 33 50 82
95 97 42 15 80 9 122 -19z"/>
<path d="M391 442 c-16 -30 15 -64 47 -51 35 13 27 63 -10 67 -18 2 -30 -3
-37 -16z"/>
<path d="M10 530 c0 -5 6 -10 13 -10 6 -1 30 -3 52 -6 50 -6 27 10 -27 20 -24
4 -38 3 -38 -4z"/>
<path d="M773 527 c-48 -18 -49 -25 -1 -16 24 4 49 8 56 9 7 0 10 5 7 10 -8
12 -21 12 -62 -3z"/>
<path d="M0 480 c0 -5 6 -10 13 -11 6 0 30 -2 51 -5 52 -5 34 12 -21 20 -27 4
-43 2 -43 -4z"/>
<path d="M790 483 c-14 -3 -29 -9 -34 -13 -5 -5 0 -7 10 -5 11 2 34 4 52 4 17
1 32 6 32 11 0 10 -15 11 -60 3z"/>
<path d="M0 422 c0 -9 13 -11 46 -7 64 6 65 12 5 16 -36 3 -51 0 -51 -9z"/>
<path d="M785 431 l-50 -6 40 -7 c59 -11 75 -10 75 7 0 8 -3 14 -7 13 -5 0
-30 -4 -58 -7z"/>
<path d="M177 404 c-3 -3 -2 -17 4 -31 13 -35 11 -46 -6 -39 -19 7 -19 3 5
-44 26 -52 38 -57 65 -29 l24 24 -29 63 c-26 56 -45 73 -63 56z"/>
<path d="M624 383 c-4 -16 -16 -43 -27 -61 l-20 -34 27 -26 27 -27 19 25 c21
27 53 110 45 118 -2 2 -7 -7 -11 -22 -3 -14 -10 -23 -16 -20 -5 3 -7 11 -5 18
19 51 19 56 -7 56 -20 0 -27 -6 -32 -27z"/>
<path d="M18 382 c-10 -2 -18 -8 -18 -14 0 -6 10 -8 23 -4 12 3 32 6 45 6 12
0 22 4 22 8 0 9 -41 11 -72 4z"/>
<path d="M750 380 c27 -14 100 -23 100 -11 0 6 -3 11 -7 12 -73 6 -105 6 -93
-1z"/>
<path d="M57 337 c-26 -6 -47 -14 -47 -19 0 -11 16 -10 61 4 22 6 39 15 39 20
0 4 -1 7 -2 7 -2 -1 -24 -6 -51 -12z"/>
<path d="M775 322 c33 -11 52 -14 57 -7 9 12 -24 23 -72 24 -34 0 -33 0 15
-17z"/>
<path d="M63 288 c-18 -6 -33 -17 -33 -24 0 -9 13 -7 48 8 26 11 49 22 51 24
8 7 -34 2 -66 -8z"/>
<path d="M755 279 c43 -20 65 -24 65 -11 0 9 -68 33 -91 31 -8 0 4 -9 26 -20z"/>
<path d="M93 246 c-41 -19 -55 -36 -33 -36 14 0 80 43 80 53 0 4 -1 6 -2 5 -2
0 -22 -10 -45 -22z"/>
<path d="M261 242 c-14 -18 -17 -29 -10 -38 16 -20 99 -55 118 -51 11 3 9 5
-6 6 -14 1 -23 7 -23 16 0 13 7 15 36 9 60 -11 40 23 -32 56 l-62 28 -21 -26z"/>
<path d="M534 256 c-11 -8 -36 -18 -55 -23 -27 -7 -35 -15 -37 -36 -3 -25 -2
-26 23 -17 37 14 48 13 41 -5 -8 -22 9 -19 60 11 44 26 46 32 16 67 -18 21
-22 21 -48 3z"/>
<path d="M700 264 c0 -2 18 -16 40 -30 26 -18 44 -24 50 -18 7 7 -8 18 -40 31
-27 12 -50 19 -50 17z"/>
<path d="M117 202 c-26 -18 -34 -29 -27 -36 7 -7 22 1 48 27 42 43 34 47 -21
9z"/>
<path d="M680 223 c1 -10 64 -58 73 -55 15 4 3 18 -34 40 -22 13 -39 20 -39
15z"/>
<path d="M156 166 c-23 -20 -36 -38 -32 -45 5 -7 20 3 42 30 31 37 39 50 32
49 -2 -1 -21 -16 -42 -34z"/>
<path d="M650 193 c1 -12 58 -73 70 -73 19 0 10 15 -30 48 -22 18 -40 30 -40
25z"/>
<path d="M191 136 c-18 -19 -30 -39 -26 -46 4 -6 18 5 37 31 37 52 32 59 -11
15z"/>
<path d="M622 165 c2 -5 14 -27 27 -48 16 -25 27 -35 34 -28 6 6 -3 23 -28 48
-20 21 -35 34 -33 28z"/>
<path d="M235 110 c-26 -41 -31 -60 -17 -60 4 0 18 23 29 50 12 28 19 50 17
50 -2 0 -15 -18 -29 -40z"/>
<path d="M580 143 c2 -22 48 -95 54 -85 4 6 -5 29 -19 52 -24 38 -36 49 -35
33z"/>
<path d="M273 86 c-20 -41 -21 -56 -3 -56 8 0 33 90 27 96 -2 2 -13 -16 -24
-40z"/>
<path d="M558 80 c9 -27 19 -50 24 -50 12 0 10 16 -9 60 -25 56 -34 50 -15
-10z"/>
<path d="M324 78 c-19 -56 -19 -60 -9 -64 6 -3 16 18 21 46 12 56 5 67 -12 18z"/>
<path d="M512 68 c9 -43 28 -75 28 -49 0 23 -23 91 -31 91 -4 0 -3 -19 3 -42z"/>
<path d="M366 57 c-5 -26 -6 -51 -2 -54 12 -13 17 6 14 53 l-3 49 -9 -48z"/>
<path d="M419 89 c0 -8 -2 -31 -3 -51 -1 -26 2 -38 11 -38 9 0 11 12 6 48 -6
48 -12 67 -14 41z"/>
<path d="M465 58 c4 -59 4 -58 15 -58 7 0 9 16 5 43 -9 57 -23 69 -20 15z"/>
</g>
</svg>
